<svg aria-hidden="true" version="1.1" xmlns="http://www.w3.org/2000/svg" xmlns:xlink="http://www.w3.org/1999/xlink">
<defs>
<symbol id="icon-Twitter" viewBox="0 0 38 32">
<path fill="#fafafa" d="M11.892 31.364c14.272 0 22.077-11.824 22.077-22.077 0-0.335 0-0.669-0.022-1.004 1.524-1.11 2.808-2.44 3.835-3.957l0.036-0.056c-1.417 0.627-2.918 1.039-4.457 1.22 1.604-0.972 2.809-2.463 3.395-4.236l0.016-0.055c-1.418 0.856-3.069 1.509-4.827 1.865l-0.1 0.017c-1.42-1.505-3.428-2.442-5.655-2.442-4.29 0-7.767 3.478-7.767 7.767 0 0.621 0.073 1.225 0.211 1.804l-0.011-0.053c-6.463-0.334-12.148-3.406-15.96-8.068l-0.031-0.039c-0.661 1.118-1.051 2.464-1.051 3.9 0 2.68 1.358 5.043 3.423 6.438l0.027 0.018c-1.299-0.039-2.506-0.394-3.56-0.99l0.038 0.020v0.099c0.001 3.742 2.65 6.865 6.175 7.597l0.050 0.009c-0.611 0.173-1.312 0.273-2.037 0.273-0.519 0-1.026-0.051-1.516-0.148l0.049 0.008c1.021 3.107 3.868 5.323 7.242 5.389l0.008 0c-2.62 2.074-5.972 3.327-9.617 3.327-0.657 0-1.305-0.041-1.941-0.12l0.076 0.008c3.355 2.183 7.459 3.481 11.867 3.481 0.009 0 0.018 0 0.027-0h-0.001z"></path>
</symbol>
<symbol id="icon-Linkedin" viewBox="0 0 32 32">
<path d="M29.637 0h-27.274c-1.305 0-2.363 1.058-2.363 2.363v0 27.274c0 1.305 1.058 2.363 2.363 2.363v0h27.274c1.305 0 2.363-1.058 2.363-2.363v0-27.274c0-1.305-1.058-2.363-2.363-2.363v0zM9.538 27.26h-4.812v-15.282h4.812v15.282zM7.127 9.858c-1.517-0.010-2.743-1.243-2.743-2.762 0-1.525 1.237-2.762 2.762-2.762s2.762 1.237 2.762 2.762c0 0.002 0 0.003 0 0.005v-0c0 0.010 0 0.023 0 0.035 0 1.504-1.219 2.722-2.722 2.722-0.020 0-0.040-0-0.060-0.001l0.003 0zM27.271 27.274h-4.81v-8.35c0-2.462-1.046-3.222-2.399-3.222-1.426 0-2.826 1.076-2.826 3.285v8.287h-4.812v-15.286h4.628v2.117h0.062c0.465-0.939 2.092-2.546 4.574-2.546 2.684 0 5.585 1.594 5.585 6.261l-0.002 9.452z"></path>
</symbol>
<symbol id="icon-Brella" viewBox="0 0 112 32">
<path d="M69.334 0h4.149v31.408h-4.149v-31.408zM46.222 21.334c0 2.766 1.457 8.925 7.112 8.296 5.333-0.593 5.926-5.334 5.926-5.334h4.149c0 1.778-2.632 7.704-10.074 7.704-8.297 0-11.851-6.519-11.851-10.666 0-4.149 1.184-11.851 11.851-11.851 8.533 0 10.666 7.11 10.666 11.851h-17.778zM59.259 18.963h-13.038c0.395-2.371 1.185-7.112 7.112-7.112 5.091 0 5.926 5.927 5.926 7.112zM82.962 0h-4.147v31.408h4.149v-31.408zM29.631 10.074l1.777 5.926c0.394-1.975 4.149-7.111 8.888-5.926v4.149c-2.765-0.397-8.296 0.829-8.296 6.517v10.667h-4.149v-21.334h1.778zM107.261 14.223l1.777-4.149h2.371v21.457l-4.742-0.126v-3.554c-0.791 1.383-3.319 4.149-7.112 4.149-4.741 0-11.851-2.37-11.851-11.259s7.111-11.851 11.851-11.259c3.763 0.471 6.717 3.161 7.703 4.741zM106.667 20.741c0-5.689-4.149-8.889-7.111-8.889-3.555 0-7.111 2.251-7.111 8.889s3.554 8.889 7.109 8.889c2.37 0 7.111-3.2 7.111-8.889zM0 31.408v-29.63h14.222c3.557 0 7.112 1.777 7.112 7.111 0 5.333-4.742 6.519-7.112 7.111 2.766 0 8.297 1.541 8.297 7.703 0 6.163-5.136 7.705-7.704 7.705h-14.815zM4.741 4.149v10.666h7.703c1.778 0 4.149-2.963 4.149-5.926 0-3.022-2.962-4.741-4.741-4.741h-7.111zM4.741 17.185v11.851h8.297c1.975-0.394 4.741-2.015 4.741-5.333 0-4.149-2.963-6.519-5.927-6.519h-7.111z"></path>
</symbol>
<symbol id="icon-Youtube" viewBox="0 0 32 32">
<path d="M31.681 9.6c0 0-0.313-2.206-1.275-3.175-1.219-1.275-2.581-1.281-3.206-1.356-4.475-0.325-11.194-0.325-11.194-0.325h-0.012c0 0-6.719 0-11.194 0.325-0.625 0.075-1.987 0.081-3.206 1.356-0.963 0.969-1.269 3.175-1.269 3.175s-0.319 2.588-0.319 5.181v2.425c0 2.587 0.319 5.181 0.319 5.181s0.313 2.206 1.269 3.175c1.219 1.275 2.819 1.231 3.531 1.369 2.563 0.244 10.881 0.319 10.881 0.319s6.725-0.012 11.2-0.331c0.625-0.075 1.988-0.081 3.206-1.356 0.962-0.969 1.275-3.175 1.275-3.175s0.319-2.587 0.319-5.181v-2.425c-0.006-2.588-0.325-5.181-0.325-5.181zM12.694 20.15v-8.994l8.644 4.513-8.644 4.481z"></path>
</symbol>
</defs>
</svg>
